<svg xmlns="http://www.w3.org/2000/svg" viewBox="0 0 512 512" role="img" aria-labelledby="title">
  <title id="title">CollinsTechEmpire CTE monogram</title>
  <defs>
    <linearGradient id="navy" x1="0" y1="0" x2="1" y2="1">
      <stop offset="0" stop-color="#1d3f73"/>
      <stop offset="1" stop-color="#071a3c"/>
    </linearGradient>
    <linearGradient id="gold" x1="0" y1="0" x2="1" y2="1">
      <stop offset="0" stop-color="#e2b65b"/>
      <stop offset="1" stop-color="#b97a1e"/>
    </linearGradient>
  </defs>
  <path d="M352 91A174 174 0 1 0 227 421" fill="none" stroke="url(#navy)" stroke-width="52" stroke-linecap="butt"/>
  <path d="M186 156h205v53H286v222l-50-31V209h-83l33-53Z" fill="url(#navy)"/>
  <path d="M301 226h80c9 10 15 22 19 37h-99v-37Z" fill="url(#gold)"/>
  <path d="M301 280h101c1 17-1 31-6 44h-49v46c22-10 40-24 56-43-16 43-49 75-102 91V280Z" fill="url(#gold)"/>
</svg>
