<svg xmlns="http://www.w3.org/2000/svg">
  <symbol id="icon-bolt" viewBox="0 0 24 24"><path d="M13 2 4.5 13H11l-1 9 8.5-12H12l1-8Z" fill="none" stroke="currentColor" stroke-width="1.8" stroke-linecap="round" stroke-linejoin="round"/></symbol>
  <symbol id="icon-menu" viewBox="0 0 24 24"><path d="M4 7h16M4 12h16M4 17h16" fill="none" stroke="currentColor" stroke-width="1.8" stroke-linecap="round"/></symbol>
  <symbol id="icon-close" viewBox="0 0 24 24"><path d="m6 6 12 12M18 6 6 18" fill="none" stroke="currentColor" stroke-width="1.8" stroke-linecap="round"/></symbol>
  <symbol id="icon-sun" viewBox="0 0 24 24"><circle cx="12" cy="12" r="4" fill="none" stroke="currentColor" stroke-width="1.7"/><path d="M12 2v2M12 20v2M4.93 4.93l1.42 1.42M17.66 17.66l1.41 1.41M2 12h2M20 12h2M4.93 19.07l1.42-1.42M17.66 6.34l1.41-1.41" fill="none" stroke="currentColor" stroke-width="1.7" stroke-linecap="round"/></symbol>
  <symbol id="icon-moon" viewBox="0 0 24 24"><path d="M20 15.2A8.4 8.4 0 0 1 8.8 4 8.5 8.5 0 1 0 20 15.2Z" fill="none" stroke="currentColor" stroke-width="1.7" stroke-linejoin="round"/></symbol>
  <symbol id="icon-arrow-right" viewBox="0 0 24 24"><path d="M5 12h14M13 6l6 6-6 6" fill="none" stroke="currentColor" stroke-width="1.8" stroke-linecap="round" stroke-linejoin="round"/></symbol>
  <symbol id="icon-arrow-up" viewBox="0 0 24 24"><path d="M12 19V5M6 11l6-6 6 6" fill="none" stroke="currentColor" stroke-width="1.8" stroke-linecap="round" stroke-linejoin="round"/></symbol>
  <symbol id="icon-external" viewBox="0 0 24 24"><path d="M14 5h5v5M19 5l-8 8" fill="none" stroke="currentColor" stroke-width="1.8" stroke-linecap="round"/><path d="M18 13v5a1 1 0 0 1-1 1H6a1 1 0 0 1-1-1V7a1 1 0 0 1 1-1h5" fill="none" stroke="currentColor" stroke-width="1.8"/></symbol>
  <symbol id="icon-check" viewBox="0 0 24 24"><path d="m5 12 4 4L19 6" fill="none" stroke="currentColor" stroke-width="2" stroke-linecap="round" stroke-linejoin="round"/></symbol>
  <symbol id="icon-code" viewBox="0 0 24 24"><path d="m8 7-5 5 5 5M16 7l5 5-5 5M14 4l-4 16" fill="none" stroke="currentColor" stroke-width="1.7" stroke-linecap="round" stroke-linejoin="round"/></symbol>
  <symbol id="icon-python" viewBox="0 0 24 24"><path d="M8.5 4.5V3.2C8.5 2 9.7 1 11 1h2c1.4 0 2.5 1.1 2.5 2.5V8H8C5.8 8 4 9.8 4 12v2H2.8C1.8 14 1 13.2 1 12.2V9.5C1 7.6 2.6 6 4.5 6H12" fill="none" stroke="currentColor" stroke-width="1.5"/><circle cx="12.8" cy="3.5" r=".8" fill="currentColor"/><path d="M15.5 19.5v1.3c0 1.2-1.2 2.2-2.5 2.2h-2c-1.4 0-2.5-1.1-2.5-2.5V16H16c2.2 0 4-1.8 4-4v-2h1.2c1 0 1.8.8 1.8 1.8v2.7c0 1.9-1.6 3.5-3.5 3.5H12" fill="none" stroke="currentColor" stroke-width="1.5"/><circle cx="11.2" cy="20.5" r=".8" fill="currentColor"/></symbol>
  <symbol id="icon-ai" viewBox="0 0 24 24"><rect x="6" y="6" width="12" height="12" rx="3" fill="none" stroke="currentColor" stroke-width="1.6"/><circle cx="10" cy="11" r="1" fill="currentColor"/><circle cx="14" cy="11" r="1" fill="currentColor"/><path d="M9.5 15h5M12 2v4M12 18v4M2 12h4M18 12h4M4.9 4.9l2.4 2.4M16.7 16.7l2.4 2.4M19.1 4.9l-2.4 2.4M7.3 16.7l-2.4 2.4" fill="none" stroke="currentColor" stroke-width="1.5" stroke-linecap="round"/></symbol>
  <symbol id="icon-circuit" viewBox="0 0 24 24"><path d="M4 4h5v5h6V4h5M4 20h5v-5h6v5h5M2 12h20" fill="none" stroke="currentColor" stroke-width="1.6" stroke-linecap="round"/><circle cx="4" cy="4" r="1.5" fill="none" stroke="currentColor"/><circle cx="20" cy="4" r="1.5" fill="none" stroke="currentColor"/><circle cx="4" cy="20" r="1.5" fill="none" stroke="currentColor"/><circle cx="20" cy="20" r="1.5" fill="none" stroke="currentColor"/></symbol>
  <symbol id="icon-solar" viewBox="0 0 24 24"><circle cx="18" cy="5" r="2.5" fill="none" stroke="currentColor" stroke-width="1.5"/><path d="M18 1v1M18 8v1M14 5h1M21 5h2M15.2 2.2l.7.7M20.1 7.1l.7.7" fill="none" stroke="currentColor" stroke-width="1.5" stroke-linecap="round"/><path d="M3 10h13l2 10H5L3 10ZM4 15h13M9 10l-1 10M13 10l1 10" fill="none" stroke="currentColor" stroke-width="1.6" stroke-linejoin="round"/></symbol>
  <symbol id="icon-network" viewBox="0 0 24 24"><circle cx="12" cy="5" r="2.5" fill="none" stroke="currentColor" stroke-width="1.6"/><circle cx="5" cy="18" r="2.5" fill="none" stroke="currentColor" stroke-width="1.6"/><circle cx="19" cy="18" r="2.5" fill="none" stroke="currentColor" stroke-width="1.6"/><path d="m10.8 7.2-4.6 8.6M13.2 7.2l4.6 8.6M7.5 18h9" fill="none" stroke="currentColor" stroke-width="1.6"/></symbol>
  <symbol id="icon-database" viewBox="0 0 24 24"><ellipse cx="12" cy="5" rx="7" ry="3" fill="none" stroke="currentColor" stroke-width="1.6"/><path d="M5 5v7c0 1.7 3.1 3 7 3s7-1.3 7-3V5M5 12v7c0 1.7 3.1 3 7 3s7-1.3 7-3v-7" fill="none" stroke="currentColor" stroke-width="1.6"/></symbol>
  <symbol id="icon-camera" viewBox="0 0 24 24"><path d="M3 8h12a2 2 0 0 1 2 2v6a2 2 0 0 1-2 2H3V8ZM17 11l4-2v8l-4-2" fill="none" stroke="currentColor" stroke-width="1.6" stroke-linejoin="round"/><circle cx="8" cy="13" r="2" fill="none" stroke="currentColor" stroke-width="1.5"/></symbol>
  <symbol id="icon-document" viewBox="0 0 24 24"><path d="M6 2h8l4 4v16H6V2Z" fill="none" stroke="currentColor" stroke-width="1.6" stroke-linejoin="round"/><path d="M14 2v5h4M9 11h6M9 15h6M9 19h4" fill="none" stroke="currentColor" stroke-width="1.5" stroke-linecap="round"/></symbol>
  <symbol id="icon-design" viewBox="0 0 24 24"><rect x="3" y="3" width="7" height="7" rx="1" fill="none" stroke="currentColor" stroke-width="1.5"/><rect x="14" y="3" width="7" height="7" rx="1" fill="none" stroke="currentColor" stroke-width="1.5"/><rect x="3" y="14" width="7" height="7" rx="1" fill="none" stroke="currentColor" stroke-width="1.5"/><path d="M17.5 14v7M14 17.5h7" fill="none" stroke="currentColor" stroke-width="1.5" stroke-linecap="round"/></symbol>
  <symbol id="icon-video" viewBox="0 0 24 24"><rect x="3" y="5" width="18" height="14" rx="2" fill="none" stroke="currentColor" stroke-width="1.6"/><path d="M8 5v14M16 5v14M3 10h5M16 10h5M3 15h5M16 15h5M11 9l4 3-4 3V9Z" fill="none" stroke="currentColor" stroke-width="1.4" stroke-linejoin="round"/></symbol>
  <symbol id="icon-media" viewBox="0 0 24 24"><path d="M4 6h16v12H4V6Z" fill="none" stroke="currentColor" stroke-width="1.6"/><circle cx="9" cy="10" r="1.5" fill="none" stroke="currentColor" stroke-width="1.4"/><path d="m5 17 5-4 3 2 2-2 4 4" fill="none" stroke="currentColor" stroke-width="1.5" stroke-linejoin="round"/></symbol>
  <symbol id="icon-search" viewBox="0 0 24 24"><circle cx="10.5" cy="10.5" r="6.5" fill="none" stroke="currentColor" stroke-width="1.7"/><path d="m15.5 15.5 5 5" fill="none" stroke="currentColor" stroke-width="1.7" stroke-linecap="round"/></symbol>
  <symbol id="icon-project" viewBox="0 0 24 24"><path d="M4 5h6l2 2h8v12H4V5Z" fill="none" stroke="currentColor" stroke-width="1.6" stroke-linejoin="round"/><path d="M8 11h8M8 15h5" fill="none" stroke="currentColor" stroke-width="1.5" stroke-linecap="round"/></symbol>
  <symbol id="icon-message" viewBox="0 0 24 24"><path d="M4 4h16v13H9l-5 4V4Z" fill="none" stroke="currentColor" stroke-width="1.6" stroke-linejoin="round"/><path d="M8 9h8M8 13h5" fill="none" stroke="currentColor" stroke-width="1.5" stroke-linecap="round"/></symbol>
  <symbol id="icon-branch" viewBox="0 0 24 24"><circle cx="6" cy="5" r="2" fill="none" stroke="currentColor" stroke-width="1.6"/><circle cx="18" cy="6" r="2" fill="none" stroke="currentColor" stroke-width="1.6"/><circle cx="6" cy="19" r="2" fill="none" stroke="currentColor" stroke-width="1.6"/><path d="M6 7v10M8 10h5a5 5 0 0 0 5-2" fill="none" stroke="currentColor" stroke-width="1.6"/></symbol>
  <symbol id="icon-github" viewBox="0 0 24 24"><path d="M12 2.5a9.5 9.5 0 0 0-3 18.5c.5.1.7-.2.7-.5v-1.8c-2.8.6-3.4-1.2-3.4-1.2-.5-1.2-1.1-1.5-1.1-1.5-.9-.6.1-.6.1-.6 1 0 1.6 1 1.6 1 .9 1.6 2.4 1.1 3 .9.1-.7.4-1.1.7-1.3-2.3-.3-4.7-1.1-4.7-5a3.9 3.9 0 0 1 1-2.7c-.1-.3-.4-1.3.1-2.7 0 0 .9-.3 2.8 1a9.6 9.6 0 0 1 5.2 0c2-1.3 2.8-1 2.8-1 .6 1.4.2 2.4.1 2.7a3.9 3.9 0 0 1 1 2.7c0 3.9-2.4 4.7-4.7 5 .4.3.7 1 .7 1.9v2.6c0 .3.2.6.7.5A9.5 9.5 0 0 0 12 2.5Z" fill="none" stroke="currentColor" stroke-width="1.4" stroke-linecap="round" stroke-linejoin="round"/></symbol>
  <symbol id="icon-engineering" viewBox="0 0 24 24"><path d="M14.2 5.1a5 5 0 0 0-5.8 6.6L3 17.1 6.9 21l5.4-5.4a5 5 0 0 0 6.6-5.8l-3 3-3.8-1-1-3.8 3.1-2.9Z" fill="none" stroke="currentColor" stroke-width="1.7" stroke-linecap="round" stroke-linejoin="round"/><circle cx="6.8" cy="17.2" r="1" fill="currentColor"/></symbol>
  <symbol id="icon-ai-practical" viewBox="0 0 24 24"><rect x="5" y="5" width="14" height="14" rx="3" fill="none" stroke="currentColor" stroke-width="1.7"/><path d="M9 14.5V11a3 3 0 0 1 6 0v3.5M8 12h8M12 8v8M2 9h3M2 15h3M19 9h3M19 15h3M9 2v3M15 2v3M9 19v3M15 19v3" fill="none" stroke="currentColor" stroke-width="1.5" stroke-linecap="round"/></symbol>
  <symbol id="icon-software" viewBox="0 0 24 24"><rect x="2.5" y="4" width="19" height="16" rx="2" fill="none" stroke="currentColor" stroke-width="1.7"/><path d="M2.5 8h19M6 6h.01M9 6h.01M9 12l-3 2.5L9 17M15 12l3 2.5-3 2.5M13.5 11l-3 7" fill="none" stroke="currentColor" stroke-width="1.5" stroke-linecap="round" stroke-linejoin="round"/></symbol>
  <symbol id="icon-renewable" viewBox="0 0 24 24"><circle cx="18.5" cy="5.5" r="2.5" fill="none" stroke="currentColor" stroke-width="1.6"/><path d="M18.5 1.5v1M18.5 8.5v1M14.5 5.5h1M21.5 5.5h1M3 10h13l2 9H5l-2-9ZM4 14.5h13M8 10l-1 9M12 10l1 9M9 19v3M15 19v3M7 22h10" fill="none" stroke="currentColor" stroke-width="1.55" stroke-linecap="round" stroke-linejoin="round"/></symbol>
  <symbol id="icon-research" viewBox="0 0 24 24"><path d="M3 5.5c3.3-.8 6-.2 9 2.1v12c-3-2.3-5.7-2.9-9-2.1v-12Zm18 0c-3.3-.8-6-.2-9 2.1v12c3-2.3 5.7-2.9 9-2.1v-12Z" fill="none" stroke="currentColor" stroke-width="1.6" stroke-linejoin="round"/><path d="m17.5 3.2 2.3 2.3-4.9 4.9-3 .7.7-3 4.9-4.9Z" fill="none" stroke="currentColor" stroke-width="1.4" stroke-linejoin="round"/></symbol>
  <symbol id="icon-creative" viewBox="0 0 24 24"><path d="m12 3 4 7-4 11-4-11 4-7ZM8 10h8M12 3v7" fill="none" stroke="currentColor" stroke-width="1.7" stroke-linejoin="round"/><circle cx="12" cy="14" r="1.3" fill="currentColor"/><path d="M5 4H3v5M19 4h2v5M5 20H3v-5M19 20h2v-5" fill="none" stroke="currentColor" stroke-width="1.5" stroke-linecap="round"/></symbol>
  <symbol id="icon-automation" viewBox="0 0 24 24"><path d="M5 8a8 8 0 0 1 13-2l2 2M19 16a8 8 0 0 1-13 2l-2-2M20 3v5h-5M4 21v-5h5" fill="none" stroke="currentColor" stroke-width="1.7" stroke-linecap="round" stroke-linejoin="round"/><circle cx="12" cy="12" r="3" fill="none" stroke="currentColor" stroke-width="1.5"/><path d="M12 9V7M12 17v-2M9 12H7M17 12h-2" stroke="currentColor" stroke-width="1.4" stroke-linecap="round"/></symbol>
  <symbol id="icon-prompt" viewBox="0 0 24 24"><path d="M3 4h18v13H9l-5 4V4Z" fill="none" stroke="currentColor" stroke-width="1.7" stroke-linejoin="round"/><path d="m8 9 2 2-2 2M12.5 13H16" fill="none" stroke="currentColor" stroke-width="1.5" stroke-linecap="round" stroke-linejoin="round"/></symbol>
  <symbol id="icon-writing" viewBox="0 0 24 24"><path d="M5 2h10l4 4v16H5V2ZM15 2v5h4" fill="none" stroke="currentColor" stroke-width="1.6" stroke-linejoin="round"/><path d="m9 16 7-7 2 2-7 7-3 1 1-3ZM8 8h4M8 12h3" fill="none" stroke="currentColor" stroke-width="1.45" stroke-linecap="round" stroke-linejoin="round"/></symbol>
  <symbol id="icon-assistant" viewBox="0 0 24 24"><path d="M5 13v-2a7 7 0 0 1 14 0v2M5 13H3v5h4v-5H5ZM19 13h2v5h-4v-5h2ZM17 20c-1 .8-2.7 1.2-5 1.2" fill="none" stroke="currentColor" stroke-width="1.7" stroke-linecap="round"/><circle cx="12" cy="9" r="3" fill="none" stroke="currentColor" stroke-width="1.5"/></symbol>
  <symbol id="icon-security" viewBox="0 0 24 24"><path d="M3 7h11a2 2 0 0 1 2 2v7H3V7ZM16 10l5-2v7l-5-2" fill="none" stroke="currentColor" stroke-width="1.6" stroke-linejoin="round"/><circle cx="8" cy="11.5" r="2" fill="none" stroke="currentColor" stroke-width="1.5"/><path d="M7 20h10M12 16v4" stroke="currentColor" stroke-width="1.6" stroke-linecap="round"/></symbol>
  <symbol id="icon-management" viewBox="0 0 24 24"><path d="M7 4h10a2 2 0 0 1 2 2v16H5V6a2 2 0 0 1 2-2Z" fill="none" stroke="currentColor" stroke-width="1.6"/><path d="M9 2h6v4H9V2Zm0 9 2 2 4-4M9 17h6" fill="none" stroke="currentColor" stroke-width="1.55" stroke-linecap="round" stroke-linejoin="round"/></symbol>
  <symbol id="icon-microphone" viewBox="0 0 24 24"><rect x="8" y="2" width="8" height="13" rx="4" fill="none" stroke="currentColor" stroke-width="1.7"/><path d="M5 11a7 7 0 0 0 14 0M12 18v4M8 22h8" fill="none" stroke="currentColor" stroke-width="1.7" stroke-linecap="round"/></symbol>
  <symbol id="icon-award" viewBox="0 0 24 24"><circle cx="12" cy="9" r="6" fill="none" stroke="currentColor" stroke-width="1.7"/><path d="m8 14-1 8 5-3 5 3-1-8M9.5 9l1.7 1.7L15 7" fill="none" stroke="currentColor" stroke-width="1.55" stroke-linecap="round" stroke-linejoin="round"/></symbol>
  <symbol id="icon-briefcase" viewBox="0 0 24 24"><path d="M4 7h16a2 2 0 0 1 2 2v10a2 2 0 0 1-2 2H4a2 2 0 0 1-2-2V9a2 2 0 0 1 2-2Z" fill="none" stroke="currentColor" stroke-width="1.7"/><path d="M8 7V5a2 2 0 0 1 2-2h4a2 2 0 0 1 2 2v2M2 12h8v2h4v-2h8" fill="none" stroke="currentColor" stroke-width="1.7" stroke-linejoin="round"/></symbol>
  <symbol id="icon-building" viewBox="0 0 24 24"><path d="M4 21V4h11v17M15 9h5v12M2 21h20" fill="none" stroke="currentColor" stroke-width="1.7" stroke-linecap="round" stroke-linejoin="round"/><path d="M8 8h3M8 12h3M8 16h3M18 13h.01M18 17h.01" fill="none" stroke="currentColor" stroke-width="1.7" stroke-linecap="round"/></symbol>
  <symbol id="icon-facebook" viewBox="0 0 24 24"><circle cx="12" cy="12" r="10" fill="currentColor"/><path d="M13.6 20v-7h2.4l.4-2.8h-2.8V8.4c0-.8.2-1.4 1.4-1.4h1.5V4.5c-.3 0-1.2-.1-2.2-.1-2.2 0-3.8 1.4-3.8 3.9v1.9H8V13h2.5v7h3.1Z" fill="#fff"/></symbol>
  <symbol id="icon-instagram" viewBox="0 0 24 24"><rect x="3" y="3" width="18" height="18" rx="5" fill="none" stroke="currentColor" stroke-width="2"/><circle cx="12" cy="12" r="4" fill="none" stroke="currentColor" stroke-width="2"/><circle cx="17.4" cy="6.7" r="1.2" fill="currentColor"/></symbol>
  <symbol id="icon-gmail" viewBox="0 0 24 24"><rect x="2.5" y="5" width="19" height="14" rx="2" fill="none" stroke="currentColor" stroke-width="1.8"/><path d="m3.5 7 8.5 6 8.5-6M3.5 18V8M20.5 18V8" fill="none" stroke="currentColor" stroke-width="1.8" stroke-linecap="round" stroke-linejoin="round"/></symbol>
  <symbol id="icon-whatsapp" viewBox="0 0 24 24"><path d="M20.5 11.6a8.5 8.5 0 0 1-12.6 7.5L3 20.5l1.4-4.7a8.5 8.5 0 1 1 16.1-4.2Z" fill="none" stroke="currentColor" stroke-width="1.7" stroke-linecap="round" stroke-linejoin="round"/><path d="M8.4 7.7c.2-.4.4-.4.7-.4h.4c.2 0 .4.1.5.4l.8 1.9c.1.3 0 .5-.2.7l-.6.7c-.2.2-.1.4 0 .6.5 1 1.3 1.8 2.2 2.3.3.2.5.2.7 0l.8-1c.2-.2.4-.3.7-.2l1.9.9c.3.1.4.3.4.5 0 .3-.2 1.5-1 2.1-.7.6-1.7.8-2.6.5-1.1-.3-2.5-.9-4.1-2.4-1.3-1.3-2.2-2.8-2.5-3.9-.4-1.1 0-2 .3-2.4.4-.5.9-.7 1.6-.3Z" fill="currentColor"/></symbol>
</svg>
