<svg xmlns="http://www.w3.org/2000/svg" width="640" height="360" viewBox="0 0 640 360">
  <g fill="none" stroke="#38bdf8" stroke-width="1" opacity=".13">
    <path d="M0 40h92l18 18h84M0 286h70l22-22h96M462 38h86l20 20h72M472 304h76l18-18h74"/>
    <circle cx="110" cy="58" r="3"/><circle cx="92" cy="264" r="3"/><circle cx="568" cy="58" r="3"/><circle cx="566" cy="286" r="3"/>
    <rect x="258" y="34" width="126" height="78" rx="5"/>
    <path d="M258 54h126M278 72l-12 10 12 10M318 72l12 10-12 10M307 67l-17 30"/>
    <path d="M72 122h118l16 76H88l-16-76Zm8 38h118M112 122l-8 76M154 122l8 76M130 198v28M102 226h58"/>
    <circle cx="198" cy="125" r="12"/><path d="M198 106v5M198 139v5M179 125h5M212 125h5"/>
    <rect x="442" y="154" width="116" height="76" rx="4"/>
    <circle cx="475" cy="192" r="18"/><path d="M475 174v-9M475 219v-9M457 192h-9M502 192h-9M464 181l-7-7M493 210l-7-7M486 181l7-7M457 210l7-7"/>
    <path d="M510 174h31M510 188h24M510 202h31M510 216h18"/>
    <path d="M252 254h136M270 238v32M294 238v32M318 238v32M342 238v32M366 238v32"/>
  </g>
  <g fill="#38bdf8" opacity=".1">
    <circle cx="28" cy="40" r="2"/><circle cx="612" cy="286" r="2"/><circle cx="230" cy="198" r="2"/><circle cx="418" cy="112" r="2"/>
  </g>
</svg>
